<?xml version="1.0" encoding="UTF-8" standalone="no"?>
<svg
   id="Layer_1"
   style="enable-background:new 0 0 100 100;"
   version="1.1"
   viewBox="0 0 100 100"
   xml:space="preserve"
   sodipodi:docname="arrow-up-light.svg"
   inkscape:version="1.3 (0e150ed6c4, 2023-07-21)"
   xmlns:inkscape="http://www.inkscape.org/namespaces/inkscape"
   xmlns:sodipodi="http://sodipodi.sourceforge.net/DTD/sodipodi-0.dtd"
   xmlns="http://www.w3.org/2000/svg"
   xmlns:svg="http://www.w3.org/2000/svg"><defs
     id="defs1" /><sodipodi:namedview
     id="namedview1"
     pagecolor="#ffffff"
     bordercolor="#000000"
     borderopacity="0.25"
     inkscape:showpageshadow="2"
     inkscape:pageopacity="0.0"
     inkscape:pagecheckerboard="0"
     inkscape:deskcolor="#d1d1d1"
     inkscape:zoom="8.21"
     inkscape:cx="50"
     inkscape:cy="50"
     inkscape:window-width="1920"
     inkscape:window-height="1017"
     inkscape:window-x="1912"
     inkscape:window-y="-8"
     inkscape:window-maximized="1"
     inkscape:current-layer="Layer_1" /><g
     id="g1"
     transform="matrix(1,0,0,-1,0,99.912216)"
     style="fill:#ffffff;fill-opacity:1"><path
       d="m 49.7,74.6 c -0.3,0 -0.5,0 -0.7,-0.1 -0.1,0 -0.2,0 -0.3,-0.1 C 48,74.2 47.3,73.8 46.8,73.3 L 10.5,36.2 c -0.8,-0.8 -1.2,-1.9 -1.2,-3 0,-1.1 0.5,-2.2 1.3,-3 l 3.8,-3.7 c 1.7,-1.6 4.3,-1.6 6,0.1 L 49.9,57 79.9,27 c 1.6,-1.6 4.3,-1.6 6,0 l 3.7,3.7 c 1.6,1.7 1.6,4.3 0,6 L 52.7,73.5 c -0.3,0.3 -0.6,0.5 -1,0.7 -0.1,0 -0.2,0.1 -0.2,0.1 l -0.2,0.1 c -0.2,0.1 -0.4,0.1 -0.7,0.2 -0.3,0 -0.6,0 -0.9,0 z M 17.3,27.4 c -0.6,0 -1.1,0.2 -1.5,0.6 L 12,31.7 c -0.9,0.9 -0.9,2.3 0,3.1 L 48.2,72 c 0.3,0.3 0.6,0.5 1,0.6 0.1,0 0.1,0 0.1,0 h 0.1 c 0.2,0 0.5,0 0.8,0 0.1,0 0.2,-0.1 0.3,-0.1 0,0 0.1,0 0.1,-0.1 h 0.1 c 0.2,-0.1 0.4,-0.2 0.5,-0.4 L 52.3,71 88,35.3 c 0.9,-0.9 0.9,-2.3 0,-3.1 l -3.7,-3.7 c -0.9,-0.9 -2.3,-0.9 -3.1,0 L 49.8,59.8 18.8,28 c -0.4,-0.4 -1,-0.6 -1.5,-0.6 z"
       id="path1"
       style="fill:#ffffff;fill-opacity:1" /></g></svg>
