<svg xmlns="http://www.w3.org/2000/svg" width="26" height="26" viewBox="0 0 26 26">
  <metadata><?xpacket begin="﻿" id="W5M0MpCehiHzreSzNTczkc9d"?>
<x:xmpmeta xmlns:x="adobe:ns:meta/" x:xmptk="Adobe XMP Core 5.6-c138 79.159824, 2016/09/14-01:09:01        ">
   <rdf:RDF xmlns:rdf="http://www.w3.org/1999/02/22-rdf-syntax-ns#">
      <rdf:Description rdf:about=""/>
   </rdf:RDF>
</x:xmpmeta>
                                                                                                    
                                                                                                    
                                                                                                    
                                                                                                    
                                                                                                    
                                                                                                    
                                                                                                    
                                                                                                    
                                                                                                    
                                                                                                    
                                                                                                    
                                                                                                    
                                                                                                    
                                                                                                    
                                                                                                    
                                                                                                    
                                                                                                    
                                                                                                    
                                                                                                    
                                                                                                    
                           
<?xpacket end="w"?></metadata>
<defs>
    <style>
      .cls-1 {
        fill: #222529;
        fill-rule: evenodd;
      }
    </style>
  </defs>
  <path id="Ellipse_copy_2" data-name="Ellipse copy 2" class="cls-1" d="M1081.66,255a12.337,12.337,0,0,1,12.34,12.34v0.33A13.331,13.331,0,0,1,1080.67,281h-0.35A12.323,12.323,0,0,1,1068,268.677V268.66A13.663,13.663,0,0,1,1081.66,255Zm2,15.727a3.557,3.557,0,0,1-2.67,1.032,3.489,3.489,0,0,1-2.66-1.032,4.313,4.313,0,0,1,0-5.5,3.516,3.516,0,0,1,2.66-1.017,3.578,3.578,0,0,1,2.68,1.024A4.254,4.254,0,0,1,1083.66,270.726Zm2.94-8.134a8.345,8.345,0,0,0-11.18.028,7.653,7.653,0,0,0-.01,10.77,8.358,8.358,0,0,0,11.19,0A7.725,7.725,0,0,0,1086.6,262.592Zm-7.71,5.36a2.13,2.13,0,1,1,2.13,2.139A2.132,2.132,0,0,1,1078.89,267.952Z" transform="translate(-1068 -255)"/>
</svg>
