<svg xmlns="http://www.w3.org/2000/svg" viewBox="0 0 349.75 349.75"><title>Asset 3</title><g id="Layer_2" data-name="Layer 2"><g id="Layer_1-2" data-name="Layer 1"><path d="M308.26,174.59h17.38c7.58,0,17.11,7.41,17.11,15v141c0,6.48-8.66,12.18-15.14,12.18h-143c-4.4,0-9.11-5.15-9.11-9.54V314l0-30.74c-2.57-3.27-8.13-6.91-12.4-7-11.71-.26-13.58,13.22-32,13.22a30.35,30.35,0,0,1-30.35-30.35c0-16.77,11.86-30.35,30.35-30.35s20.68,14.73,32,15a12.39,12.39,0,0,0,12.4-8.36l0-29,0-17.49a14.37,14.37,0,0,1,14.33-14.33h47.17a11,11,0,0,1,7.38,10.94c-.26,10-13.24,11.92-13.24,28.21s12,26.76,26.75,26.76a26.76,26.76,0,0,0,26.76-26.76c0-16.25-11.88-17.89-11.65-28.21.08-3.77,3.28-8.67,6.17-10.94Z" style="fill:none;stroke:#324c5e;stroke-linecap:round;stroke-linejoin:round;stroke-width:14.000029563903809px"/><path d="M174.59,145.43V112.69a10.94,10.94,0,0,1,10.94-7.37c10,.25,11.92,13.24,28.21,13.24s26.76-12,26.76-26.76a26.75,26.75,0,0,0-26.76-26.75c-16.25,0-17.89,11.88-28.21,11.65-3.77-.08-8.67-3.29-10.94-6.18V24.11c0-7.58,7.41-17.11,15-17.11h141c6.48,0,12.18,8.66,12.18,15.13v128" style="fill:none;stroke:#324c5e;stroke-linecap:round;stroke-linejoin:round;stroke-width:14.000029563903809px"/><path d="M145.43,175.16H112.69a10.94,10.94,0,0,1-7.37-10.94c.25-10,13.24-11.92,13.24-28.22s-12-26.75-26.76-26.75A26.75,26.75,0,0,0,65.05,136c0,16.25,11.88,17.9,11.65,28.22-.08,3.77-3.29,8.67-6.18,10.94H24.11c-7.58,0-17.11-7.41-17.11-15v-141C7,12.7,15.66,7,22.13,7h128" style="fill:none;stroke:#324c5e;stroke-linecap:round;stroke-linejoin:round;stroke-width:14.000029563903809px"/><path d="M152.36,342.75H19.17C12.7,342.75,7,334.09,7,327.61v-128" style="fill:none;stroke:#324c5e;stroke-linecap:round;stroke-linejoin:round;stroke-width:14.000029563903809px"/></g></g></svg>