<svg xmlns="http://www.w3.org/2000/svg" viewBox="0 0 348.47 345.67"><title>Asset 1</title><g id="Layer_2" data-name="Layer 2"><g id="Layer_1-2" data-name="Layer 1"><path d="M7,109.85V313.33c0,15.39,8,22.34,22.34,22.34H151.42" style="fill:none;stroke:#324c5e;stroke-linecap:round;stroke-linejoin:round;stroke-width:14.000029563903809px"/><path d="M254.68,68.77V29.34C254.68,13.78,249,7,232.34,7H111.8" style="fill:none;stroke:#324c5e;stroke-linecap:round;stroke-linejoin:round;stroke-width:14.000029563903809px"/><path d="M7,87.42H65.08c15.55,0,22.35-7.89,22.35-22.34V7L7,87.42Z" style="fill:none;stroke:#324c5e;stroke-linecap:round;stroke-linejoin:round;stroke-width:14.000029563903809px"/><line x1="212.21" y1="73.11" x2="134.27" y2="73.11" style="fill:none;stroke:#324c5e;stroke-linecap:round;stroke-linejoin:round;stroke-width:14.000029563903809px"/><line x1="169.75" y1="134.64" x2="56.33" y2="134.64" style="fill:none;stroke:#324c5e;stroke-linecap:round;stroke-linejoin:round;stroke-width:14.000029563903809px"/><line x1="138.94" y1="167.56" x2="56.33" y2="167.56" style="fill:none;stroke:#324c5e;stroke-linecap:round;stroke-linejoin:round;stroke-width:14.000029563903809px"/><line x1="98.09" y1="200.48" x2="56.33" y2="200.48" style="fill:none;stroke:#324c5e;stroke-linecap:round;stroke-linejoin:round;stroke-width:14.000029563903809px"/><path d="M307,338.67h17.37c7.59,0,17.11-7.41,17.11-15V263.53c-2.27-2.89-7.17-6.09-10.94-6.18-10.31-.22-12,11.66-28.21,11.66a26.76,26.76,0,0,1-26.76-26.76c0-14.77,10.46-26.75,26.76-26.75s18.23,13,28.21,13.24a10.94,10.94,0,0,0,10.94-7.38V182.68c0-6.47-8.66-12.17-15.13-12.17H282c-3.28-2.58-6.92-8.13-7-12.41-.26-11.7,13.22-13.57,13.22-32a30.34,30.34,0,0,0-30.35-30.35c-16.76,0-30.35,11.86-30.35,30.35s14.73,20.68,15,32a12.4,12.4,0,0,1-8.36,12.41H183.37c-4.39,0-9.1,5.14-9.1,9.54v19.21l0,30.73c-2.58,3.28-8.13,6.92-12.41,7-11.7.26-13.57-13.22-32-13.22a30.35,30.35,0,0,0-30.35,30.35c0,16.76,11.86,30.35,30.35,30.35s20.67-14.73,32-15a12.42,12.42,0,0,1,12.41,8.37l0,29v17.5a14.38,14.38,0,0,0,14.34,14.33h39.17a10.94,10.94,0,0,0,7.37-10.94c-.25-10-13.24-11.92-13.24-28.22s12-26.75,26.76-26.75a26.76,26.76,0,0,1,26.76,26.75c0,16.25-11.89,17.9-11.66,28.22.08,3.77,3.29,8.67,6.18,10.94Z" style="fill:none;stroke:#324c5e;stroke-linecap:round;stroke-linejoin:round;stroke-width:14.000029563903809px"/></g></g></svg>