<svg xmlns="http://www.w3.org/2000/svg" viewBox="0 0 368.68 351.72"><title>Asset 2</title><g id="Layer_2" data-name="Layer 2"><g id="Layer_1-2" data-name="Layer 1"><path d="M199.35,261.87,120,152.9a23.42,23.42,0,0,1,5.14-32.63h0a23.42,23.42,0,0,1,32.63,5.13l36.67,50.39a23.31,23.31,0,0,1,9.37-15.71h0a23.45,23.45,0,0,1,30.46,2.56,23.35,23.35,0,0,1,9.58-19h0a23.43,23.43,0,0,1,30.45,2.56,23.38,23.38,0,0,1,9.59-19h0c10.35-7.61,27.21-6.5,32.63,5.14l37.73,81.11c35.42,76.15-64.36,160.65-133,121.25-30.6-17.56-40.23-38-78.15-44.35-12.67-2.14-43.44-7-39.09-22.21,17.19-28.21,50.92-21.88,63-17.26" style="fill:none;stroke:#324c5e;stroke-linecap:round;stroke-linejoin:round;stroke-width:14.000029563903809px"/><path d="M114.44,213.81a81.05,81.05,0,1,1,100.15-96.57" style="fill:none;stroke:#324c5e;stroke-linecap:round;stroke-linejoin:round;stroke-width:14.000029563903809px"/><path d="M74.86,248.83A128.53,128.53,0,1,1,257,93.47" style="fill:none;stroke:#324c5e;stroke-linecap:round;stroke-linejoin:round;stroke-width:14.000029563903809px"/></g></g></svg>